<?xml version="1.0" encoding="utf-8"?>
<!-- Generator: Adobe Illustrator 22.0.1, SVG Export Plug-In . SVG Version: 6.00 Build 0)  -->
<svg version="1.1" id="Слой_1" xmlns="http://www.w3.org/2000/svg" xmlns:xlink="http://www.w3.org/1999/xlink" x="0px" y="0px"
	 viewBox="0 0 100 100" style="enable-background:new 0 0 100 100;" xml:space="preserve">
<circle style="fill:#F2BF26;" cx="50" cy="50" r="50"/>
<g>
	<path style="fill:#080808;" d="M69.974,66.008H31.026V32.992c0-0.552-0.447-1-1-1s-1,0.448-1,1v34.017c0,0.553,0.447,1,1,1h39.947
		c0.553,0,1-0.447,1-1S70.526,66.008,69.974,66.008z"/>
	<path style="fill:#080808;" d="M33.763,62.154c0.17,0.112,0.361,0.166,0.551,0.166c0.324,0,0.643-0.157,0.835-0.448l4.738-7.156
		l3.277,2.896c0.404,0.391,0.955,0.581,1.531,0.536c0.585-0.053,1.117-0.357,1.47-0.849l8.066-11.631l2.142,1.833
		c0.471,0.39,1.04,0.556,1.604,0.46c0.562-0.093,1.048-0.431,1.345-0.914l6.517-9.589l0.594,6.607
		c0.047,0.52,0.483,0.911,0.995,0.911c0.03,0,0.06-0.001,0.091-0.004c0.55-0.049,0.956-0.536,0.906-1.085l-0.703-7.779
		c0-0.676-0.254-1.272-0.715-1.677c-0.422-0.371-0.963-0.536-1.531-0.463l-7.777,0.902c-0.549,0.063-0.941,0.56-0.878,1.108
		c0.063,0.548,0.559,0.947,1.108,0.878l6.425-0.767L57.66,45.97l-2.97-2.542c-0.216-0.184-0.497-0.265-0.778-0.232
		c-0.28,0.036-0.532,0.189-0.693,0.422l-8.697,12.525l-4.172-3.688c-0.216-0.191-0.498-0.28-0.793-0.242
		c-0.287,0.037-0.543,0.198-0.703,0.439l-5.373,8.115C33.176,61.228,33.302,61.849,33.763,62.154z"/>
</g>
</svg>
