<?xml version="1.0" encoding="utf-8"?>
<!-- Generator: Adobe Illustrator 22.0.1, SVG Export Plug-In . SVG Version: 6.00 Build 0)  -->
<svg version="1.1" id="Слой_1" xmlns="http://www.w3.org/2000/svg" xmlns:xlink="http://www.w3.org/1999/xlink" x="0px" y="0px"
	 viewBox="0 0 100 100" style="enable-background:new 0 0 100 100;" xml:space="preserve">
<circle style="fill:#F2BF26;" cx="50" cy="50" r="50"/>
<g transform="translate(0,-952.36218)">
	<path style="fill:none;stroke:#080808;stroke-width:2;stroke-linecap:round;stroke-linejoin:round;stroke-miterlimit:10;" d="
		M50.031,983.852l-2.611,1.803l-3.171-0.684l-1.74,2.673l-3.171,0.622l-0.622,3.171l-2.673,1.74l0.684,3.171l-1.803,2.611
		l1.803,2.611l-0.684,3.171l2.673,1.74l0.622,3.171l3.171,0.621l1.74,2.673l3.171-0.684l2.611,1.803l2.611-1.803l3.109,0.684
		l1.74-2.673l3.171-0.621l0.622-3.171l2.673-1.74l-0.684-3.171l1.803-2.611l-1.74-2.673l0.684-3.171l-2.673-1.741l-0.622-3.171
		l-3.171-0.622l-1.74-2.673l-3.109,0.684L50.031,983.852z M50.031,990.443l2.611,5.285l5.844,0.87l-4.228,4.103l0.995,5.781
		l-5.222-2.797l-5.222,2.735l0.995-5.782l-4.228-4.103l5.844-0.87L50.031,990.443z M45.161,1012.815l-0.356,13.974l5.125-4.543
		l5.197,5.027l-0.01-14.003"/>
</g>
</svg>
