<?xml version="1.0" encoding="utf-8"?>
<!-- Generator: Adobe Illustrator 22.0.1, SVG Export Plug-In . SVG Version: 6.00 Build 0)  -->
<svg version="1.1" id="Слой_1" xmlns="http://www.w3.org/2000/svg" xmlns:xlink="http://www.w3.org/1999/xlink" x="0px" y="0px"
	 viewBox="0 0 100 100" style="enable-background:new 0 0 100 100;" xml:space="preserve">
<circle style="fill:#F2BF26;" cx="50" cy="50" r="50"/>
<g>
	<path style="fill:none;stroke:#080808;stroke-width:2;stroke-linecap:round;stroke-linejoin:round;stroke-miterlimit:10;" d="
		M53.282,66.795c0.056-0.716-0.235-1.566-0.235-1.566c-0.47-0.861-1.644-1.488-2.975-1.488c-1.801,0-3.289,1.096-3.289,2.506
		c0,1.409,1.488,2.506,3.289,2.506C51.638,68.753,52.969,67.891,53.282,66.795l10.179-4.072c3.289-1.331,4.62-3.289,4.62-6.969
		v-3.367l0,0c0.391-0.705,0.705-1.488,0.705-2.349c0-8.535-8.378-18.792-18.792-18.792S31.202,41.505,31.202,50.039
		c0,1.957,1.409,3.523,3.21,3.837c0.313,1.409,1.566,2.427,3.054,2.427c1.723,0,3.132-1.409,3.132-3.132v-6.264
		c0-1.723-1.409-3.132-3.132-3.132c-1.488,0-2.74,1.018-3.054,2.427c-0.391,0.078-0.861,0.235-1.174,0.47
		c0,0-2.036,1.018-2.036,3.367"/>
	<path style="fill:none;stroke:#080808;stroke-width:2;stroke-linecap:round;stroke-linejoin:round;stroke-miterlimit:10;" d="
		M68.785,50.039c0.207-2.274-2.036-3.367-2.036-3.367c-0.391-0.235-0.783-0.391-1.174-0.47c-0.313-1.409-1.566-2.427-3.054-2.427
		c-1.723,0-3.132,1.409-3.132,3.132v6.264c0,1.723,1.409,3.132,3.132,3.132c1.488,0,2.74-1.018,3.054-2.427
		c0.313-0.078,0.626-0.157,0.861-0.235C66.436,53.641,68.785,52.91,68.785,50.039z"/>
	
		<line style="fill:none;stroke:#080808;stroke-width:2;stroke-linecap:round;stroke-linejoin:round;stroke-miterlimit:10;" x1="34.439" y1="45.972" x2="34.439" y2="53.802"/>
	
		<line style="fill:none;stroke:#080808;stroke-width:2;stroke-linecap:round;stroke-linejoin:round;stroke-miterlimit:10;" x1="65.524" y1="45.972" x2="65.524" y2="53.802"/>
</g>
</svg>
