<?xml version="1.0" encoding="utf-8"?>
<!-- Generator: Adobe Illustrator 22.0.1, SVG Export Plug-In . SVG Version: 6.00 Build 0)  -->
<svg version="1.1" id="Слой_1" xmlns="http://www.w3.org/2000/svg" xmlns:xlink="http://www.w3.org/1999/xlink" x="0px" y="0px"
	 viewBox="0 0 66.147 66.147" style="enable-background:new 0 0 66.147 66.147;" xml:space="preserve">
<line style="fill:none;stroke:#F2BF26;stroke-width:2;stroke-linecap:round;stroke-linejoin:round;stroke-miterlimit:10;" x1="58.275" y1="59.076" x2="60.566" y2="59.076"/>
<line style="fill:none;stroke:#F2BF26;stroke-width:2;stroke-linecap:round;stroke-linejoin:round;stroke-miterlimit:10;" x1="52.547" y1="59.076" x2="54.838" y2="59.076"/>
<line style="fill:none;stroke:#F2BF26;stroke-width:2;stroke-linecap:round;stroke-linejoin:round;stroke-miterlimit:10;" x1="46.82" y1="59.076" x2="49.111" y2="59.076"/>
<line style="fill:none;stroke:#F2BF26;stroke-width:2;stroke-linecap:round;stroke-linejoin:round;stroke-miterlimit:10;" x1="58.275" y1="50.485" x2="60.566" y2="50.485"/>
<line style="fill:none;stroke:#F2BF26;stroke-width:2;stroke-linecap:round;stroke-linejoin:round;stroke-miterlimit:10;" x1="52.547" y1="50.485" x2="54.838" y2="50.485"/>
<line style="fill:none;stroke:#F2BF26;stroke-width:2;stroke-linecap:round;stroke-linejoin:round;stroke-miterlimit:10;" x1="46.82" y1="50.485" x2="49.111" y2="50.485"/>
<line style="fill:none;stroke:#F2BF26;stroke-width:2;stroke-linecap:round;stroke-linejoin:round;stroke-miterlimit:10;" x1="58.275" y1="41.894" x2="60.566" y2="41.894"/>
<line style="fill:none;stroke:#F2BF26;stroke-width:2;stroke-linecap:round;stroke-linejoin:round;stroke-miterlimit:10;" x1="52.547" y1="41.894" x2="54.838" y2="41.894"/>
<line style="fill:none;stroke:#F2BF26;stroke-width:2;stroke-linecap:round;stroke-linejoin:round;stroke-miterlimit:10;" x1="46.82" y1="41.894" x2="49.111" y2="41.894"/>
<path style="fill:none;stroke:#F2BF26;stroke-width:2;stroke-linecap:round;stroke-linejoin:round;stroke-miterlimit:10;" d="
	M44.529,10.164h2.291V23.91h-2.291 M39.947,5.582h3.436v3.436V23.91h-3.459l0.023-14.891V5.582z M38.801,23.91H36.51V13.6v-3.436
	h2.291 M35.365,23.91h-2.291v-9.164h2.291"/>
<path style="fill:none;stroke:#F2BF26;stroke-width:2;stroke-linecap:round;stroke-linejoin:round;stroke-miterlimit:10;" d="
	M42.238,45.903h22.91v9.164h-22.91V45.903z M65.147,54.838v8.248h-22.91v-8.248 M42.238,46.018v-8.133h22.91v8.133 M26.201,2.145
	C26.201,1.514,26.714,1,27.346,1h25.201c0.632,0,1.145,0.514,1.145,1.145v25.201c0,0.631-0.513,1.145-1.145,1.145H27.346
	c-0.632,0-1.145-0.514-1.145-1.145V2.145z"/>
<circle style="fill:none;stroke:#F2BF26;stroke-width:2;stroke-miterlimit:10;" cx="15.827" cy="50.32" r="14.827"/>
<g>
	<path style="fill:none;stroke:#F2BF26;stroke-width:2;stroke-linecap:round;stroke-linejoin:round;stroke-miterlimit:10;" d="
		M19.049,53.044c-0.107-0.017-0.216,0.017-0.293,0.094l-1.231,1.231c-0.427,0.427-0.995,0.663-1.599,0.663s-1.172-0.235-1.599-0.663
		l-1.231-1.231c-0.077-0.077-0.187-0.112-0.293-0.094c-2.892,0.481-5.074,3.052-5.074,5.982c0,0.186,0.151,0.337,0.337,0.337h15.721
		c0.186,0,0.337-0.151,0.337-0.337C24.123,56.096,21.941,53.525,19.049,53.044z"/>
	<path style="fill:none;stroke:#F2BF26;stroke-width:2;stroke-linecap:round;stroke-linejoin:round;stroke-miterlimit:10;" d="
		M10.682,44.176c0.877-2.184,2.983-3.513,5.204-3.513c0.693,0,1.398,0.13,2.08,0.403c1.388,0.558,2.476,1.622,3.063,2.998
		c0.587,1.376,0.604,2.898,0.046,4.286c-1.152,2.866-4.417,4.261-7.284,3.11c-1.388-0.558-2.476-1.622-3.063-2.998
		C10.141,47.085,10.125,45.564,10.682,44.176z"/>
</g>
<line style="fill:none;stroke:#F2BF26;stroke-width:2;stroke-linecap:round;stroke-linejoin:round;stroke-miterlimit:10;" x1="23.111" y1="37.408" x2="32.007" y2="28.627"/>
<line style="fill:none;stroke:#F2BF26;stroke-width:2;stroke-linecap:round;stroke-linejoin:round;stroke-miterlimit:10;" x1="30.655" y1="50.32" x2="42.238" y2="50.32"/>
</svg>
