<?xml version="1.0" encoding="utf-8"?>
<!-- Generator: Adobe Illustrator 22.0.1, SVG Export Plug-In . SVG Version: 6.00 Build 0)  -->
<svg version="1.1" id="Слой_1" xmlns="http://www.w3.org/2000/svg" xmlns:xlink="http://www.w3.org/1999/xlink" x="0px" y="0px"
	 viewBox="0 0 100 100" style="enable-background:new 0 0 100 100;" xml:space="preserve">
<circle style="fill:#F2BF26;" cx="50" cy="50" r="50"/>
<g>
	<path style="fill:none;stroke:#000000;stroke-width:2;stroke-linecap:round;stroke-linejoin:round;stroke-miterlimit:10;" d="
		M56.358,56.171c-0.218-0.035-0.44,0.035-0.597,0.191l-2.505,2.505c-0.87,0.87-2.025,1.349-3.255,1.349
		c-1.23,0-2.386-0.479-3.256-1.349l-2.505-2.505c-0.157-0.157-0.381-0.228-0.597-0.191c-5.888,0.979-10.329,6.214-10.329,12.178
		c0,0.378,0.307,0.685,0.685,0.685h32.003c0.378,0,0.685-0.307,0.685-0.685C66.686,62.385,62.246,57.15,56.358,56.171z"/>
	<path style="fill:none;stroke:#000000;stroke-width:2;stroke-linecap:round;stroke-linejoin:round;stroke-miterlimit:10;" d="
		M39.324,38.118c1.786-4.445,6.073-7.152,10.595-7.152c1.411,0,2.846,0.264,4.234,0.821c2.825,1.135,5.039,3.302,6.236,6.103
		c1.195,2.801,1.229,5.899,0.095,8.724c-2.344,5.835-8.991,8.674-14.828,6.33c-2.825-1.135-5.039-3.302-6.236-6.103
		C38.223,44.041,38.19,40.944,39.324,38.118z"/>
	
		<polyline style="fill:none;stroke:#000000;stroke-width:2;stroke-linecap:round;stroke-linejoin:round;stroke-miterlimit:10;" points="
		46.745,58.868 50.052,62.598 53.255,58.868 	"/>
	
		<polyline style="fill:none;stroke:#000000;stroke-width:2;stroke-linecap:round;stroke-linejoin:round;stroke-miterlimit:10;" points="
		48.745,69.034 50.052,63.068 51.618,69.034 	"/>
</g>
</svg>
