<?xml version="1.0" encoding="utf-8"?>
<!-- Generator: Adobe Illustrator 22.0.1, SVG Export Plug-In . SVG Version: 6.00 Build 0)  -->
<svg version="1.1" id="Layer_1" xmlns="http://www.w3.org/2000/svg" xmlns:xlink="http://www.w3.org/1999/xlink" x="0px" y="0px"
	 viewBox="0 0 20 24.341" style="enable-background:new 0 0 20 24.341;" xml:space="preserve">
<path style="fill:none;stroke:#F2BF26;stroke-width:2;stroke-miterlimit:10;" d="M8.975,1.057C4.902,1.508,1.597,4.749,1.078,8.814
	c-0.593,4.645,2.249,8.706,6.41,9.856c0.831,0.23,1.518,1.923,1.849,2.72l0.543,1.826c0.04,0.167,0.277,0.167,0.317,0l0.553-1.85
	c0.329-0.791,1.011-2.48,1.835-2.715C16.353,17.577,19,14.111,19,9.999C19,4.691,14.405,0.456,8.975,1.057z M10.001,11.842
	c-0.944,0-1.71-0.766-1.71-1.71s0.766-1.71,1.71-1.71s1.71,0.766,1.71,1.71C11.711,11.077,10.945,11.842,10.001,11.842z"/>
</svg>
