<?xml version="1.0" encoding="utf-8"?>
<!-- Generator: Adobe Illustrator 22.0.1, SVG Export Plug-In . SVG Version: 6.00 Build 0)  -->
<svg version="1.1" id="Слой_1" xmlns="http://www.w3.org/2000/svg" xmlns:xlink="http://www.w3.org/1999/xlink" x="0px" y="0px"
	 viewBox="0 0 53.551 64.279" style="enable-background:new 0 0 53.551 64.279;" xml:space="preserve">
<g>
	<path style="fill:none;stroke:#F2BF26;stroke-width:2;stroke-linecap:round;stroke-linejoin:round;stroke-miterlimit:10;" d="
		M18.136,45.641c-8.074,1.342-14.162,8.52-14.162,16.698c0,0.519,0.421,0.939,0.939,0.939h43.881c0.519,0,0.939-0.421,0.939-0.939
		c0-6.73-4.123-12.783-10.083-15.463"/>
	<path style="fill:none;stroke:#F2BF26;stroke-width:2;stroke-linecap:round;stroke-linejoin:round;stroke-miterlimit:10;" d="
		M13.018,19.19c2.785-5.079,8.123-8.109,13.724-8.109c1.934,0,3.903,0.362,5.805,1.125c3.397,1.366,6.151,3.819,7.883,6.993
		 M40.422,34.239c-3.748,6.834-12.114,9.955-19.527,6.977c-3.337-1.342-6.054-3.733-7.79-6.825"/>
</g>
<g>
	<path style="fill:none;stroke:#F2BF26;stroke-width:2;stroke-linecap:round;stroke-linejoin:round;stroke-miterlimit:10;" d="
		M31.276,49.742c0.077-0.981-0.322-2.147-0.322-2.147c-0.644-1.181-2.255-2.04-4.08-2.04c-2.469,0-4.509,1.503-4.509,3.436
		s2.04,3.436,4.509,3.436C29.021,52.426,30.846,51.245,31.276,49.742l13.957-5.583c4.509-1.825,6.334-4.509,6.334-9.555v-4.617l0,0
		c0.537-0.966,0.966-2.04,0.966-3.221C52.533,15.064,41.045,1,26.767,1S1,15.064,1,26.767c0,2.684,1.932,4.831,4.402,5.261
		c0.429,1.932,2.147,3.328,4.187,3.328c2.362,0,4.294-1.932,4.294-4.294v-8.589c0-2.362-1.932-4.294-4.294-4.294
		c-2.04,0-3.758,1.396-4.187,3.328c-0.537,0.107-1.181,0.322-1.61,0.644c0,0-2.791,1.396-2.791,4.617"/>
	<path style="fill:none;stroke:#F2BF26;stroke-width:2;stroke-linecap:round;stroke-linejoin:round;stroke-miterlimit:10;" d="
		M52.533,26.767c0.283-3.118-2.791-4.617-2.791-4.617c-0.537-0.322-1.074-0.537-1.61-0.644c-0.429-1.932-2.147-3.328-4.187-3.328
		c-2.362,0-4.294,1.932-4.294,4.294v8.589c0,2.362,1.932,4.294,4.294,4.294c2.04,0,3.758-1.396,4.187-3.328
		c0.429-0.107,0.859-0.215,1.181-0.322C49.312,31.705,52.533,30.703,52.533,26.767z"/>
</g>
<line style="fill:none;stroke:#F2BF26;stroke-width:2;stroke-linecap:round;stroke-linejoin:round;stroke-miterlimit:10;" x1="5.44" y1="21.189" x2="5.44" y2="31.926"/>
<line style="fill:none;stroke:#F2BF26;stroke-width:2;stroke-linecap:round;stroke-linejoin:round;stroke-miterlimit:10;" x1="48.062" y1="21.189" x2="48.062" y2="31.926"/>
</svg>
