<?xml version="1.0" encoding="utf-8"?>
<!-- Generator: Adobe Illustrator 22.0.1, SVG Export Plug-In . SVG Version: 6.00 Build 0)  -->
<svg version="1.1" id="Слой_1" xmlns="http://www.w3.org/2000/svg" xmlns:xlink="http://www.w3.org/1999/xlink" x="0px" y="0px"
	 viewBox="0 0 18.9 21.5" style="enable-background:new 0 0 18.9 21.5;" xml:space="preserve">
<style type="text/css">
	.st0{fill:none;stroke:#F2BF26;stroke-width:1.5;stroke-linecap:round;stroke-linejoin:round;stroke-miterlimit:10;}
</style>
<title>102all</title>
<path class="st0" d="M6,9.7c0.6,0.9,1.2,1.7,1.8,2.5c0.6,0.8,1.3,1.5,2.1,2.3c0.5,0.5,1.2,0.5,1.7,0.1l0.4-0.4
	c0.3-0.3,0.8-0.3,1.2,0l4.6,3.3c0.4,0.3,0.5,0.9,0.2,1.4c0,0.1-0.1,0.1-0.2,0.2l-1.6,1.3c-0.5,0.4-1.2,0.5-1.8,0.4
	c-1-0.1-1.9-0.5-2.8-1c-2.1-1.1-4.3-3.1-6.3-5.5s-3.5-5-4.2-7.3C0.5,4.7,0.6,3,1.6,2.3L3.1,1c0.1-0.1,0.2-0.1,0.2-0.1
	c0.5-0.2,1,0,1.3,0.5L7,6.5C7.1,6.9,7,7.4,6.7,7.6L6.3,8C5.8,8.4,5.7,9.2,6,9.7z"/>
</svg>
