<?xml version="1.0" encoding="utf-8"?>
<!-- Generator: Adobe Illustrator 22.0.1, SVG Export Plug-In . SVG Version: 6.00 Build 0)  -->
<svg version="1.1" id="Слой_1" xmlns="http://www.w3.org/2000/svg" xmlns:xlink="http://www.w3.org/1999/xlink" x="0px" y="0px"
	 viewBox="0 0 82.983 57.4" style="enable-background:new 0 0 82.983 57.4;" xml:space="preserve">
<g>
	<path style="fill:none;stroke:#F2BF26;stroke-width:2;stroke-linecap:round;stroke-linejoin:round;stroke-miterlimit:10;" d="
		M7.824,45.507V1h67.333v44.507 M6.798,45.644h69.386L81.983,56.4H1L6.798,45.644z"/>
	<path style="fill:none;stroke:#F2BF26;stroke-width:2;stroke-linecap:round;stroke-linejoin:round;stroke-miterlimit:10;" d="
		M29.632,50.942H53.35"/>
</g>
<g>
	<path style="fill:none;stroke:#F2BF26;stroke-width:2;stroke-linecap:round;stroke-linejoin:round;stroke-miterlimit:10;" d="
		M63.119,41.014c-0.077,0-0.233,0-0.311-0.077c-0.156-0.077-0.311-0.233-0.389-0.389l-1.246-3.036l-1.557,1.09
		c-0.233,0.156-0.545,0.233-0.779,0.077c-0.233-0.156-0.389-0.389-0.389-0.7l0.077-9.653c0-0.311,0.156-0.623,0.467-0.7
		c0.312-0.156,0.623-0.077,0.856,0.156l6.85,6.929c0.233,0.233,0.311,0.545,0.156,0.779c-0.077,0.312-0.389,0.467-0.623,0.545
		l-1.946,0.233l1.246,3.036c0.156,0.389,0,0.856-0.389,1.012l-1.634,0.7C63.353,41.014,63.198,41.014,63.119,41.014z"/>
</g>
<g>
	<path style="fill:none;stroke:#F2BF26;stroke-width:2;stroke-linecap:round;stroke-linejoin:round;stroke-miterlimit:10;" d="
		M60.993,22.078V7.171H21.167V39.31h30.839"/>
</g>
<g>
	<path style="fill:none;stroke:#F2BF26;stroke-width:2;stroke-linecap:round;stroke-linejoin:round;stroke-miterlimit:10;" d="
		M29.405,23.039h23.35V18.36h-23.35V23.039z"/>
</g>
<g>
	<path style="fill:none;stroke:#F2BF26;stroke-width:2;stroke-linecap:round;stroke-linejoin:round;stroke-miterlimit:10;" d="
		M29.405,32.65h23.35v-4.679h-23.35V32.65z"/>
</g>
<line style="fill:none;stroke:#F2BF26;stroke-width:2;stroke-linecap:round;stroke-linejoin:round;stroke-miterlimit:10;" x1="53.15" y1="10.92" x2="56.583" y2="14.352"/>
<line style="fill:none;stroke:#F2BF26;stroke-width:2;stroke-linecap:round;stroke-linejoin:round;stroke-miterlimit:10;" x1="56.583" y1="10.92" x2="53.15" y2="14.352"/>
</svg>
