<?xml version="1.0" encoding="utf-8"?>
<!-- Generator: Adobe Illustrator 22.0.1, SVG Export Plug-In . SVG Version: 6.00 Build 0)  -->
<svg version="1.1" id="Слой_1" xmlns="http://www.w3.org/2000/svg" xmlns:xlink="http://www.w3.org/1999/xlink" x="0px" y="0px"
	 viewBox="0 0 100 100" style="enable-background:new 0 0 100 100;" xml:space="preserve">
<circle style="fill:#F2BF26;" cx="50" cy="50" r="50"/>
<g>
	<path d="M42.458,48.104l2.214,2.214c0.195,0.195,0.451,0.293,0.707,0.293s0.512-0.098,0.707-0.293c0.391-0.391,0.391-1.023,0-1.414
		l-1.507-1.507l1.507-1.507c0.391-0.391,0.391-1.023,0-1.414s-1.023-0.391-1.414,0l-2.214,2.214
		C42.068,47.08,42.068,47.713,42.458,48.104z"/>
	<path d="M54.48,50.318c0.195,0.195,0.451,0.293,0.707,0.293s0.512-0.098,0.707-0.293l2.214-2.214c0.391-0.391,0.391-1.023,0-1.414
		l-2.214-2.214c-0.391-0.391-1.023-0.391-1.414,0c-0.391,0.39-0.391,1.023,0,1.414l1.507,1.507l-1.507,1.507
		C54.09,49.294,54.09,49.928,54.48,50.318z"/>
	<path d="M48.194,51.939c0.126,0.052,0.256,0.077,0.385,0.077c0.392,0,0.763-0.232,0.923-0.616l3.361-8.069
		c0.213-0.51-0.028-1.096-0.538-1.308c-0.509-0.21-1.094,0.029-1.308,0.539l-3.361,8.069C47.443,51.142,47.685,51.727,48.194,51.939
		z"/>
	<path d="M63.987,30.188c-0.007,0-0.052,0-0.123,0c-0.01,0-0.019,0.002-0.03,0l-0.639,0.002c-0.233,0.001-0.484,0.002-0.697,0.002
		c-0.064-0.013-0.132-0.02-0.2-0.02H44.382c-2.858,0-5.184,2.325-5.184,5.184v27.092h-5.052c-2.035,0-3.69,1.655-3.69,3.689
		s1.655,3.689,3.69,3.689h22.12c0.02,0,0.039-0.001,0.059-0.002c2.841-0.068,5.046-2.254,5.046-5.032l0.003-26.021
		c0.754,1.061,1.993,1.754,3.391,1.754c2.636,0,4.78-2.145,4.78-4.78C69.544,32.681,67.051,30.188,63.987,30.188z M34.146,67.827
		c-0.932,0-1.69-0.758-1.69-1.689s0.758-1.689,1.69-1.689H52.15c-0.114,0.318-0.177,0.661-0.177,1.018v0.148
		c0,0.812,0.23,1.569,0.629,2.213H34.146z M59.38,35.017c-0.004,0.037-0.01,0.153-0.01,0.19v29.586c0,1.701-1.398,3.034-3.185,3.034
		c-1.22,0-2.212-0.993-2.212-2.213v-0.148c0-0.562,0.456-1.018,1.017-1.018c0.562,0,1.018,0.456,1.018,1.018c0,0.553,0.447,1,1,1
		s1-0.447,1-1c0-1.664-1.354-3.018-3.018-3.018c-0.031,0-0.066,0.001-0.099,0H41.198V35.356c0-1.755,1.428-3.184,3.184-3.184h15.822
		C59.708,33.052,59.42,34.031,59.38,35.017z M64.764,38.526c-1.19,0-2.158-0.969-2.158-2.159c0-0.916,0.746-1.661,1.662-1.661
		c0.553,0,1-0.448,1-1s-0.447-1-1-1c-1.027,0-1.957,0.425-2.623,1.109c0.222-0.602,0.57-1.157,1.026-1.622l0.725-0.003
		c0.318-0.001,0.571-0.002,0.592-0.002c1.961,0,3.557,1.596,3.557,3.558C67.544,37.279,66.297,38.526,64.764,38.526z"/>
</g>
</svg>
