<?xml version="1.0" encoding="utf-8"?>
<!-- Generator: Adobe Illustrator 22.0.1, SVG Export Plug-In . SVG Version: 6.00 Build 0)  -->
<svg version="1.1" id="Слой_1" xmlns="http://www.w3.org/2000/svg" xmlns:xlink="http://www.w3.org/1999/xlink" x="0px" y="0px"
	 viewBox="0 0 101 101" style="enable-background:new 0 0 101 101;" xml:space="preserve">
<circle style="fill:#F2BF26;" cx="50.5" cy="50.5" r="50"/>
<g>
	<path style="fill:none;stroke:#000000;stroke-width:2;stroke-linecap:round;stroke-linejoin:round;stroke-miterlimit:10;" d="
		M56.858,57.998c-0.218-0.035-0.44,0.035-0.597,0.191l-2.505,2.505c-0.87,0.87-2.025,1.349-3.255,1.349s-2.386-0.479-3.256-1.349
		l-2.505-2.505c-0.157-0.157-0.381-0.228-0.597-0.191c-5.888,0.979-10.329,6.214-10.329,12.178c0,0.378,0.307,0.685,0.685,0.685
		h32.003c0.378,0,0.685-0.307,0.685-0.685C67.186,64.212,62.746,58.977,56.858,57.998z"/>
	<path style="fill:none;stroke:#000000;stroke-width:2;stroke-linecap:round;stroke-linejoin:round;stroke-miterlimit:10;" d="
		M45.998,41.69c0.76-1.892,2.585-3.044,4.509-3.044c0.6,0,1.211,0.112,1.802,0.349c1.202,0.483,2.145,1.405,2.654,2.597
		s0.523,2.51,0.04,3.713c-0.998,2.483-3.827,3.692-6.311,2.694c-1.202-0.483-2.145-1.405-2.654-2.597S45.515,42.892,45.998,41.69z"
		/>
	<path style="fill:none;stroke:#000000;stroke-width:2;stroke-linecap:round;stroke-linejoin:round;stroke-miterlimit:10;" d="
		M37.933,41.384c-0.377-0.018-0.667,0.251-0.708,0.608c-0.124,1.095-0.112,2.205,0.037,3.299c0.048,0.355,0.369,0.614,0.72,0.591
		c1.218-0.076,2.358,0.629,2.836,1.749c0.478,1.119,0.198,2.429-0.698,3.258c-0.263,0.243-0.294,0.649-0.071,0.929
		c0.687,0.865,1.481,1.642,2.357,2.309c0.286,0.217,0.69,0.177,0.928-0.091c0.809-0.914,2.111-1.223,3.242-0.769
		c1.13,0.454,1.857,1.578,1.809,2.798c-0.014,0.358,0.251,0.667,0.607,0.708c0.499,0.057,1,0.085,1.503,0.085
		c0.6,0,1.201-0.041,1.797-0.122c0.355-0.048,0.613-0.363,0.591-0.72c-0.074-1.218,0.629-2.358,1.749-2.836
		c1.121-0.478,2.429-0.197,3.258,0.698c0.243,0.263,0.648,0.295,0.929,0.071c0.864-0.686,1.641-1.48,2.309-2.357
		c0.217-0.286,0.177-0.69-0.091-0.928c-0.914-0.809-1.224-2.112-0.77-3.242s1.575-1.856,2.799-1.809
		c0.376,0.014,0.667-0.251,0.708-0.608c0.124-1.095,0.112-2.205-0.037-3.299c-0.048-0.355-0.354-0.611-0.72-0.591
		c-1.209,0.074-2.357-0.628-2.835-1.749c-0.478-1.12-0.198-2.429,0.698-3.258c0.263-0.243,0.295-0.648,0.071-0.929
		c-0.687-0.865-1.48-1.642-2.357-2.309c-0.286-0.217-0.69-0.178-0.928,0.091c-0.809,0.914-2.114,1.223-3.242,0.77
		c-1.13-0.454-1.857-1.579-1.809-2.799c0.014-0.358-0.251-0.667-0.607-0.708c-1.094-0.124-2.204-0.112-3.299,0.037
		c-0.355,0.048-0.614,0.362-0.591,0.72c0.074,1.218-0.629,2.358-1.748,2.836c-1.12,0.479-2.429,0.198-3.258-0.698
		c-0.243-0.263-0.648-0.294-0.929-0.071c-0.864,0.687-1.641,1.48-2.308,2.357c-0.217,0.286-0.177,0.69,0.091,0.928
		c0.914,0.809,1.223,2.113,0.769,3.242C40.278,40.704,39.138,41.424,37.933,41.384z"/>
</g>
</svg>
