<?xml version="1.0" encoding="utf-8"?>
<!-- Generator: Adobe Illustrator 22.0.1, SVG Export Plug-In . SVG Version: 6.00 Build 0)  -->
<svg version="1.1" id="Слой_1" xmlns="http://www.w3.org/2000/svg" xmlns:xlink="http://www.w3.org/1999/xlink" x="0px" y="0px"
	 viewBox="0 0 69.9 58.448" style="enable-background:new 0 0 69.9 58.448;" xml:space="preserve">
<g>
	<path style="fill:none;stroke:#F2BF26;stroke-width:2;stroke-linecap:round;stroke-linejoin:round;stroke-miterlimit:10;" d="
		M68.9,29.044V48.25 M43.201,7.763V3.615h22.182c0.631,0,1.082,0.541,1.082,1.082v9.107 M25.617,13.534V9.116
		c0-0.631,0.541-1.082,1.082-1.082H58.35c0.631,0,1.082,0.541,1.082,1.082v4.599 M8.033,13.714V2.082C8.033,1.541,8.575,1,9.116,1
		h30.478c0.631,0,1.082,0.541,1.082,1.082v5.771 M1,12.993c0-1.623,1.262-2.886,2.886-2.886h3.787 M67.728,57.448H2.082
		C1.541,57.448,1,56.907,1,56.276V12.993c0.812,0.541,1.803,0.812,2.886,0.812h62.129c1.623,0,2.886,1.533,2.886,3.427v11.903
		h-8.657c-4.959,0-9.017,4.238-9.017,9.468s4.058,9.468,9.017,9.468H68.9v8.116C68.9,56.907,68.359,57.448,67.728,57.448z"/>
	<path style="fill:none;stroke:#F2BF26;stroke-width:2;stroke-linecap:round;stroke-linejoin:round;stroke-miterlimit:10;" d="
		M56.095,38.782c0,2.615,2.074,4.779,4.689,4.779s4.689-2.164,4.689-4.779c0-2.615-2.074-4.779-4.689-4.779
		S56.095,36.077,56.095,38.782z"/>
	<path style="fill:none;stroke:#F2BF26;stroke-width:2;stroke-linecap:round;stroke-linejoin:round;stroke-miterlimit:10;" d="
		M6.05,19.756h3.066"/>
	<path style="fill:none;stroke:#F2BF26;stroke-width:2;stroke-linecap:round;stroke-linejoin:round;stroke-miterlimit:10;" d="
		M26.339,19.756h5.771"/>
	<path style="fill:none;stroke:#F2BF26;stroke-width:2;stroke-linecap:round;stroke-linejoin:round;stroke-miterlimit:10;" d="
		M37.79,19.756h5.771"/>
	<path style="fill:none;stroke:#F2BF26;stroke-width:2;stroke-linecap:round;stroke-linejoin:round;stroke-miterlimit:10;" d="
		M49.242,19.756h5.771"/>
	<path style="fill:none;stroke:#F2BF26;stroke-width:2;stroke-linecap:round;stroke-linejoin:round;stroke-miterlimit:10;" d="
		M14.887,19.756h5.771"/>
	<path style="fill:none;stroke:#F2BF26;stroke-width:2;stroke-linecap:round;stroke-linejoin:round;stroke-miterlimit:10;" d="
		M60.694,19.756h3.066"/>
</g>
</svg>
